# xmcd
#
# Track frame offsets: 
#        150
#        16741
#        33527
#        53202
#        70191
#        87989
#        106758
#        125947
#        142386
#        156382
#        168232
#        194956
#        212519
#
# Disc length: 3111 seconds
#
# Revision: 0
# Processed by: cddbd v1.5.2PL0 Copyright (c) Steve Scherf et al.
# Submitted via: ExactAudioCopy v0.95b4
#
DISCID=c30c250d
DTITLE=Various Artist - Frozen - A Selection Of Polazized Country
DYEAR=1900
DGENRE=Country
TTITLE0=Midnight Choir - 'till the sun comes up
TTITLE1=Whiteleather - American Rebel
TTITLE2=Silver Band, The - Mother Of Earh
TTITLE3=Alimony - Like A Waterfall
TTITLE4=Respatexans, The - Casey Jones
TTITLE5=Home Groan - Astrodome
TTITLE6=Klintberg - Just a Breath Away
TTITLE7=Deeptone - Sometimes
TTITLE8=Cosmic Twang - Strange Fixations
TTITLE9=Tumblewees - Runaway
TTITLE10=Motel North - Bypaths
TTITLE11=Solli, Kristin - IQU
TTITLE12=Swanzon Family - What it might be
EXTD=
EXTT0=
EXTT1=
EXTT2=
EXTT3=
EXTT4=
EXTT5=
EXTT6=
EXTT7=
EXTT8=
EXTT9=
EXTT10=
EXTT11=
EXTT12=
PLAYORDER=
